<svg id="Layer_1" data-name="Layer 1" xmlns="http://www.w3.org/2000/svg" viewBox="0 0 36 36"><defs><style>.cls-1{fill:#fff;opacity:0.5;isolation:isolate;}</style></defs><title>Artboard 1</title><circle class="cls-1" cx="18" cy="18" r="18"/><path d="M18,12.5A5.48,5.48,0,0,0,12.5,18a5.5,5.5,0,0,0,11,0A5.48,5.48,0,0,0,18,12.5Zm12.2,4.1A12.23,12.23,0,0,0,19.4,5.8V3H16.7V5.8A12.14,12.14,0,0,0,5.8,16.6H3v2.7H5.8A12.13,12.13,0,0,0,16.6,30.1V33h2.7V30.2A12.33,12.33,0,0,0,30.2,19.4H33V16.7A26.2,26.2,0,0,0,30.2,16.6ZM18,27.5A9.5,9.5,0,1,1,27.5,18,9.5,9.5,0,0,1,18,27.5Z"/></svg>