<?xml version="1.0" encoding="utf-8"?>
<!-- Generator: Adobe Illustrator 21.0.2, SVG Export Plug-In . SVG Version: 6.00 Build 0)  -->
<!DOCTYPE svg PUBLIC "-//W3C//DTD SVG 1.1//EN" "http://www.w3.org/Graphics/SVG/1.1/DTD/svg11.dtd">
<svg version="1.1" id="Layer_1" xmlns="http://www.w3.org/2000/svg" xmlns:xlink="http://www.w3.org/1999/xlink" x="0px" y="0px"
	 viewBox="0 0 36 36" style="enable-background:new 0 0 36 36;" xml:space="preserve">
<style type="text/css">
	.st0{fill:none;}
	.st1{stroke:#FFFFFF;stroke-width:0.25;stroke-miterlimit:10;}
</style>
<path class="st0" d="M6,6h24v24H6V6z"/>
<path class="st1" d="M18,11.8c-3.4,0-6.2,2.8-6.2,6.2s2.8,6.2,6.2,6.2s6.2-2.8,6.2-6.2S21.4,11.8,18,11.8z M31.8,16.5
	C31.1,10,26,4.9,19.5,4.2V1h-3.1v3.2C10,4.9,4.9,10,4.2,16.5H1v3.1h3.2C4.9,26,10,31.1,16.5,31.8V35h3.1v-3.2
	C26,31.1,31.1,26,31.8,19.5H35v-3.1C35,16.5,31.8,16.5,31.8,16.5z M18,28.8C12,28.8,7.2,24,7.2,18S12,7.2,18,7.2S28.8,12,28.8,18
	S24,28.8,18,28.8z"/>
</svg>
