<?xml version="1.0" encoding="utf-8"?>
<!-- Generator: Adobe Illustrator 21.0.2, SVG Export Plug-In . SVG Version: 6.00 Build 0)  -->
<!DOCTYPE svg PUBLIC "-//W3C//DTD SVG 1.1//EN" "http://www.w3.org/Graphics/SVG/1.1/DTD/svg11.dtd">
<svg version="1.1" id="Layer_1" xmlns="http://www.w3.org/2000/svg" xmlns:xlink="http://www.w3.org/1999/xlink" x="0px" y="0px"
	 viewBox="0 0 36 36" style="enable-background:new 0 0 36 36;" xml:space="preserve">
<style type="text/css">
	.st0{display:none;fill:#000002;}
	.st1{opacity:0.5;fill:#7F7F7F;}
</style>
<path class="st0" d="M0,0h36v36H0V0z"/>
<circle class="st1" cx="18" cy="18" r="18"/>
<path d="M18,12.5c-3,0-5.5,2.4-5.5,5.5s2.4,5.5,5.5,5.5s5.5-2.4,5.5-5.5S21,12.5,18,12.5z M30.2,16.6C29.6,10.9,25,6.4,19.4,5.8V3
	h-2.7v2.8C10.9,6.4,6.4,10.9,5.8,16.6H3v2.7h2.8c0.6,5.7,5.1,10.2,10.8,10.8V33h2.7v-2.8C25,29.6,29.6,25,30.2,19.4H33v-2.7
	C33,16.6,30.2,16.6,30.2,16.6z M18,27.5c-5.3,0-9.5-4.3-9.5-9.5s4.3-9.5,9.5-9.5s9.5,4.3,9.5,9.5S23.3,27.5,18,27.5z"/>
</svg>
