<svg id="Layer_1" data-name="Layer 1" xmlns="http://www.w3.org/2000/svg" viewBox="0 0 36 36"><defs><style>.cls-1{fill:#7f7f7f;opacity:0.5;}</style></defs><title>ic_launcher</title><circle class="cls-1" cx="18" cy="18" r="18"/><path d="M18,12.55A5.45,5.45,0,1,0,23.45,18,5.45,5.45,0,0,0,18,12.55Zm12.19,4.09A12.26,12.26,0,0,0,19.36,5.81V3H16.64V5.81A12.26,12.26,0,0,0,5.81,16.64H3v2.73H5.81A12.26,12.26,0,0,0,16.64,30.19V33h2.73V30.19A12.26,12.26,0,0,0,30.19,19.36H33V16.64ZM18,27.55A9.55,9.55,0,1,1,27.55,18,9.54,9.54,0,0,1,18,27.55Z"/></svg>